<svg width="225" height="18" viewBox="0 0 225 18" fill="none" xmlns="http://www.w3.org/2000/svg">
<path d="M0.496 17V0.899999H2.98V14.608H12.571V17H0.496ZM18.5749 17V14.608H22.1859V3.292H18.5749V0.899999H28.3039V3.292H24.6699V14.608H28.3039V17H18.5749ZM35.1981 17V0.899999H42.6731C44.0225 0.899999 45.2261 1.107 46.2841 1.521C47.3421 1.935 48.2315 2.51 48.9521 3.246C49.6881 3.982 50.2401 4.833 50.6081 5.799C50.9915 6.765 51.1831 7.81533 51.1831 8.95C51.1831 10.0847 50.9915 11.1427 50.6081 12.124C50.2401 13.1053 49.6881 13.964 48.9521 14.7C48.2315 15.4207 47.3421 15.988 46.2841 16.402C45.2261 16.8007 44.0225 17 42.6731 17H35.1981ZM37.6821 14.861L37.6131 14.608H42.5581C43.5855 14.608 44.4748 14.47 45.2261 14.194C45.9775 13.9027 46.5985 13.504 47.0891 12.998C47.5798 12.492 47.9478 11.894 48.1931 11.204C48.4385 10.514 48.5611 9.76267 48.5611 8.95C48.5611 8.13733 48.4385 7.39367 48.1931 6.719C47.9478 6.029 47.5798 5.431 47.0891 4.925C46.5985 4.40367 45.9775 4.005 45.2261 3.729C44.4748 3.43767 43.5855 3.292 42.5581 3.292H37.5441L37.6821 3.085V14.861ZM56.5339 17V14.608H60.1449V3.292H56.5339V0.899999H66.2629V3.292H62.6289V14.608H66.2629V17H56.5339ZM71.2251 17L78.4931 0.899999H81.2761L88.4981 17H85.7841L81.0001 6.42C80.9081 6.19 80.7931 5.914 80.6551 5.592C80.5171 5.25467 80.3715 4.90967 80.2181 4.557C80.0801 4.20433 79.9421 3.85167 79.8041 3.499C79.6815 3.14633 79.5741 2.832 79.4821 2.556L80.1491 2.533C80.0265 2.855 79.8961 3.19233 79.7581 3.545C79.6355 3.89767 79.5051 4.25033 79.3671 4.603C79.2291 4.94033 79.0911 5.27 78.9531 5.592C78.8151 5.914 78.6848 6.22067 78.5621 6.512L73.8011 17H71.2251ZM74.3991 13.136L75.3651 10.744H84.1051L84.7491 13.136H74.3991ZM93.5517 17V0.899999H95.9207L107.835 14.079L107.605 14.286C107.543 13.8567 107.482 13.389 107.421 12.883C107.375 12.377 107.336 11.8557 107.306 11.319C107.275 10.7823 107.244 10.2303 107.214 9.663C107.198 9.08033 107.183 8.49767 107.168 7.915C107.152 7.33233 107.145 6.75733 107.145 6.19V0.899999H109.629V17H107.214L95.4607 4.304L95.5757 3.982C95.6217 4.488 95.66 4.98633 95.6907 5.477C95.7367 5.95233 95.7827 6.41233 95.8287 6.857C95.8747 7.30167 95.9053 7.731 95.9207 8.145C95.9513 8.54367 95.9743 8.927 95.9897 9.295C96.0203 9.64767 96.0357 9.985 96.0357 10.307V17H93.5517ZM116.619 17V0.899999H128.809V3.292H119.103V14.608H128.809V17H116.619ZM117.884 9.939V7.547H127.544V9.939H117.884ZM144.74 17V0.899999H147.224V14.608H156.815V17H144.74ZM170.305 17.23C168.986 17.23 167.775 17.023 166.671 16.609C165.582 16.1797 164.624 15.5893 163.796 14.838C162.983 14.0867 162.354 13.2127 161.91 12.216C161.465 11.204 161.243 10.1153 161.243 8.95C161.243 7.78467 161.465 6.70367 161.91 5.707C162.354 4.695 162.983 3.81333 163.796 3.062C164.624 2.31067 165.582 1.728 166.671 1.314C167.775 0.884666 168.986 0.669999 170.305 0.669999C171.623 0.669999 172.827 0.876999 173.916 1.291C175.02 1.705 175.978 2.29533 176.791 3.062C177.619 3.81333 178.255 4.695 178.7 5.707C179.16 6.70367 179.39 7.78467 179.39 8.95C179.39 10.1153 179.16 11.204 178.7 12.216C178.255 13.2127 177.619 14.0943 176.791 14.861C175.978 15.6123 175.02 16.195 173.916 16.609C172.827 17.023 171.623 17.23 170.305 17.23ZM170.305 14.815C171.271 14.815 172.145 14.6693 172.927 14.378C173.724 14.0713 174.414 13.6573 174.997 13.136C175.595 12.5993 176.055 11.9783 176.377 11.273C176.699 10.5523 176.86 9.778 176.86 8.95C176.86 8.122 176.699 7.35533 176.377 6.65C176.055 5.92933 175.595 5.30833 174.997 4.787C174.414 4.25033 173.724 3.83633 172.927 3.545C172.145 3.23833 171.271 3.085 170.305 3.085C169.354 3.085 168.48 3.23833 167.683 3.545C166.885 3.83633 166.188 4.24267 165.59 4.764C165.007 5.28533 164.555 5.90633 164.233 6.627C163.926 7.33233 163.773 8.10667 163.773 8.95C163.773 9.778 163.926 10.5523 164.233 11.273C164.555 11.9937 165.007 12.6147 165.59 13.136C166.188 13.6573 166.885 14.0713 167.683 14.378C168.48 14.6693 169.354 14.815 170.305 14.815ZM193.082 17.23C191.855 17.23 190.69 17.046 189.586 16.678C188.482 16.2947 187.508 15.7503 186.665 15.045C185.821 14.3243 185.154 13.4503 184.664 12.423C184.188 11.3957 183.951 10.238 183.951 8.95C183.951 7.8 184.188 6.72667 184.664 5.73C185.139 4.73333 185.806 3.867 186.665 3.131C187.523 2.37967 188.52 1.797 189.655 1.383C190.789 0.968999 192.008 0.761999 193.312 0.761999C194.354 0.761999 195.328 0.892333 196.233 1.153C197.153 1.39833 197.965 1.728 198.671 2.142C199.391 2.556 199.959 3.00833 200.373 3.499L198.763 5.27C198.241 4.82533 197.689 4.45733 197.107 4.166C196.524 3.85933 195.911 3.62167 195.267 3.453C194.638 3.269 193.986 3.177 193.312 3.177C192.361 3.177 191.472 3.32267 190.644 3.614C189.831 3.90533 189.118 4.31167 188.505 4.833C187.891 5.35433 187.408 5.96767 187.056 6.673C186.718 7.363 186.55 8.122 186.55 8.95C186.55 9.88533 186.726 10.721 187.079 11.457C187.447 12.193 187.945 12.8063 188.574 13.297C189.202 13.7877 189.915 14.1633 190.713 14.424C191.525 14.6847 192.369 14.815 193.243 14.815C194.055 14.815 194.822 14.7307 195.543 14.562C196.263 14.378 196.892 14.125 197.429 13.803C197.965 13.4657 198.379 13.0823 198.671 12.653C198.977 12.2083 199.115 11.7407 199.085 11.25V10.882L199.43 11.319H193.266V8.881H201.73C201.76 9.09567 201.783 9.27967 201.799 9.433C201.814 9.571 201.822 9.69367 201.822 9.801C201.822 9.893 201.822 9.97733 201.822 10.054C201.822 11.2193 201.607 12.2467 201.178 13.136C200.748 14.0253 200.143 14.7767 199.361 15.39C198.579 15.988 197.651 16.448 196.578 16.77C195.52 17.0767 194.354 17.23 193.082 17.23ZM215.272 17.23C213.953 17.23 212.742 17.023 211.638 16.609C210.549 16.1797 209.591 15.5893 208.763 14.838C207.95 14.0867 207.321 13.2127 206.877 12.216C206.432 11.204 206.21 10.1153 206.21 8.95C206.21 7.78467 206.432 6.70367 206.877 5.707C207.321 4.695 207.95 3.81333 208.763 3.062C209.591 2.31067 210.549 1.728 211.638 1.314C212.742 0.884666 213.953 0.669999 215.272 0.669999C216.59 0.669999 217.794 0.876999 218.883 1.291C219.987 1.705 220.945 2.29533 221.758 3.062C222.586 3.81333 223.222 4.695 223.667 5.707C224.127 6.70367 224.357 7.78467 224.357 8.95C224.357 10.1153 224.127 11.204 223.667 12.216C223.222 13.2127 222.586 14.0943 221.758 14.861C220.945 15.6123 219.987 16.195 218.883 16.609C217.794 17.023 216.59 17.23 215.272 17.23ZM215.272 14.815C216.238 14.815 217.112 14.6693 217.894 14.378C218.691 14.0713 219.381 13.6573 219.964 13.136C220.562 12.5993 221.022 11.9783 221.344 11.273C221.666 10.5523 221.827 9.778 221.827 8.95C221.827 8.122 221.666 7.35533 221.344 6.65C221.022 5.92933 220.562 5.30833 219.964 4.787C219.381 4.25033 218.691 3.83633 217.894 3.545C217.112 3.23833 216.238 3.085 215.272 3.085C214.321 3.085 213.447 3.23833 212.65 3.545C211.852 3.83633 211.155 4.24267 210.557 4.764C209.974 5.28533 209.522 5.90633 209.2 6.627C208.893 7.33233 208.74 8.10667 208.74 8.95C208.74 9.778 208.893 10.5523 209.2 11.273C209.522 11.9937 209.974 12.6147 210.557 13.136C211.155 13.6573 211.852 14.0713 212.65 14.378C213.447 14.6693 214.321 14.815 215.272 14.815Z" fill="black"/>
</svg>
